<?xml version="1.0" standalone="no"?>
<!DOCTYPE svg PUBLIC "-//W3C//DTD SVG 20010904//EN"
 "http://www.w3.org/TR/2001/REC-SVG-20010904/DTD/svg10.dtd">
<svg version="1.0" xmlns="http://www.w3.org/2000/svg"
 width="700.000000pt" height="700.000000pt" viewBox="0 0 700.000000 700.000000"
 preserveAspectRatio="xMidYMid meet">
<metadata>
Created by potrace 1.11, written by Peter Selinger 2001-2013
</metadata>
<g transform="translate(0.000000,700.000000) scale(0.100000,-0.100000)"
fill="#000000" stroke="none">
<path d="M749 6996 c-2 -2 -26 -7 -54 -11 -102 -13 -250 -75 -345 -143 -65
-46 -188 -180 -229 -249 -22 -37 -52 -99 -66 -138 -58 -156 -55 28 -52 -2980
l2 -2770 21 -75 c45 -156 122 -286 231 -391 126 -121 247 -184 438 -227 40 -9
5558 -9 5612 0 66 11 189 55 252 90 218 121 367 321 421 566 19 85 19 159 19
2827 0 2916 2 2805 -45 2935 -85 235 -266 425 -485 510 -164 63 21 59 -2980
60 -1505 0 -2738 -2 -2740 -4z m3281 -1048 c47 -11 105 -22 130 -24 128 -9
176 -15 238 -29 152 -34 307 -105 470 -214 48 -32 136 -84 196 -115 60 -31
114 -60 121 -66 9 -7 5 -36 -16 -117 -16 -60 -28 -114 -29 -120 0 -9 20 -13
69 -13 60 0 70 3 84 23 8 12 19 18 23 14 5 -5 -1 -17 -13 -27 -15 -11 -23 -29
-23 -48 0 -27 -6 -32 -75 -61 -41 -17 -79 -31 -84 -31 -21 0 -21 -21 -1 -47
l21 -26 -33 -35 c-49 -52 -110 -112 -114 -112 -2 0 -22 27 -44 60 -22 33 -44
60 -49 60 -4 0 -20 -13 -36 -30 l-28 -29 44 -39 c24 -22 57 -50 72 -63 l29
-25 -101 -97 c-95 -90 -165 -138 -234 -158 -32 -9 -61 1 -157 56 -152 87 -226
117 -340 139 -14 2 -68 16 -120 30 -121 33 -173 40 -285 40 -137 -1 -244 -23
-358 -73 -27 -12 -52 -21 -55 -21 -4 0 -15 20 -25 45 -17 41 -22 45 -53 45
l-33 0 24 -65 25 -65 -49 0 c-39 0 -50 -4 -53 -18 -4 -14 -16 -19 -47 -20 -56
-2 -57 24 -1 33 46 8 50 22 18 60 -17 19 -37 28 -73 33 -48 7 -52 10 -91 69
-22 35 -43 65 -46 68 -3 4 -18 -10 -33 -29 l-27 -36 54 -134 55 -134 -125
-101 c-119 -96 -126 -101 -144 -85 -10 10 -20 15 -23 12 -3 -3 4 -13 15 -23
43 -39 9 -112 -64 -140 -38 -15 -46 -22 -47 -44 0 -14 -2 -35 -4 -46 -5 -22
-14 -103 -20 -175 -2 -25 -7 -70 -10 -100 -3 -30 -8 -77 -11 -105 -7 -78 -6
-564 1 -620 28 -216 153 -443 359 -653 64 -65 110 -120 109 -130 -1 -9 -3 -26
-5 -37 -3 -18 3 -20 83 -20 80 -1 90 -4 165 -42 142 -74 248 -95 504 -97 l155
-2 13 -42 14 -42 84 0 84 0 0 76 0 77 53 -7 c28 -3 85 -11 125 -18 l74 -11 40
-64 c22 -35 42 -63 43 -61 2 2 19 46 38 99 34 95 34 96 16 121 -19 25 -19 27
7 82 22 48 49 85 43 59 -1 -4 4 -36 11 -71 16 -70 20 -69 61 10 18 36 18 39 2
74 -16 33 -16 37 -2 48 17 12 122 103 195 169 39 35 45 37 108 37 l67 0 74
-77 74 -78 -77 -78 c-46 -47 -88 -80 -104 -84 -35 -7 -35 -15 -2 -50 23 -25
34 -28 100 -31 66 -4 76 -7 87 -27 l12 -23 93 40 c91 39 94 39 114 21 30 -26
118 -133 118 -142 0 -5 -13 -11 -30 -14 -18 -4 -30 -13 -30 -22 0 -11 6 -15
18 -11 69 20 72 20 115 -22 23 -22 61 -49 85 -61 23 -12 43 -27 43 -34 2 -14
2 -67 0 -83 -1 -9 -54 -64 -160 -165 -127 -121 -416 -313 -633 -420 l-87 -43
-43 30 c-36 25 -43 36 -44 65 -1 68 35 256 66 347 17 52 29 96 26 99 -15 15
-68 -14 -117 -65 l-56 -57 -74 1 c-41 1 -76 2 -79 3 -3 0 -5 55 -4 122 1 94
-2 124 -14 135 -8 8 -16 14 -17 12 -3 -3 -17 -76 -18 -95 0 -15 -13 -17 -22
-3 -3 5 -10 10 -16 10 -5 0 2 -23 17 -51 18 -37 22 -55 15 -62 -20 -20 -11
-42 47 -104 l57 -62 79 25 c44 13 82 22 84 19 3 -3 4 -26 3 -52 -1 -52 -36
-130 -80 -181 l-27 -32 -34 30 c-19 16 -39 29 -43 30 -13 0 -37 -66 -37 -100
0 -40 -47 -90 -85 -90 -38 0 -83 -22 -143 -69 -75 -60 -108 -69 -263 -70 -153
-2 -184 -6 -254 -31 -89 -33 -125 -34 -176 -7 -43 23 -47 24 -71 9 -24 -14
-30 -14 -71 2 -60 23 -91 48 -111 91 l-17 35 -52 -28 c-49 -27 -58 -29 -159
-26 -59 1 -111 5 -116 8 -5 3 -31 8 -58 12 -84 11 -280 81 -432 154 -142 69
-145 71 -127 90 16 18 17 21 1 44 -28 43 -50 49 -76 21 -13 -14 -26 -25 -29
-25 -3 0 -22 14 -41 31 -19 16 -51 44 -71 61 l-36 30 13 72 c7 39 15 83 18 97
5 24 2 27 -29 31 l-35 4 0 -93 c0 -51 -4 -93 -9 -93 -17 0 -237 225 -292 300
-107 143 -183 281 -250 453 -21 56 -39 102 -39 104 0 2 15 3 33 3 34 0 57 15
57 36 0 16 -59 8 -80 -11 -15 -14 -21 -6 -73 87 -87 161 -109 236 -113 398 -3
130 -9 211 -20 261 -2 13 -7 42 -10 64 -3 22 -8 51 -10 65 -15 83 -15 207 0
307 66 423 109 599 204 833 90 224 175 363 328 540 209 241 519 483 779 610
122 59 175 79 463 170 168 54 195 57 298 35 25 -6 39 -1 76 25 l46 32 168 5
c92 2 169 5 171 6 9 10 183 -7 253 -25z m1288 -564 c10 -33 9 -35 -10 -32 -16
2 -21 11 -22 36 -1 43 18 41 32 -4z m-1411 -1460 c86 -32 146 -142 156 -289
l4 -61 -82 -88 -82 -88 -71 20 -70 20 -35 -23 -34 -24 -55 67 c-44 55 -60 85
-86 166 -28 86 -30 101 -18 115 8 9 21 32 29 52 8 19 28 51 45 71 29 32 78 53
187 82 19 5 70 -4 112 -20z m1323 -1436 c0 -4 -9 -8 -21 -8 -11 0 -18 4 -15 8
3 5 12 9 21 9 8 0 15 -4 15 -9z m-810 -84 c0 -3 -11 -15 -24 -25 -14 -11 -28
-28 -31 -38 -10 -31 -79 -60 -121 -51 -44 10 -52 18 -28 26 57 20 161 68 174
80 15 15 30 18 30 8z m130 -1090 c0 -8 -4 -14 -10 -14 -5 0 -10 9 -10 21 0 11
5 17 10 14 6 -3 10 -13 10 -21z"/>
<path d="M3149 5792 c-24 -21 -72 -56 -106 -77 -35 -22 -63 -42 -63 -45 0 -5
125 -70 133 -70 4 0 0 98 -3 115 -5 23 2 31 28 31 72 1 72 1 72 44 0 22 -4 40
-9 40 -4 0 -28 -17 -52 -38z"/>
<path d="M3637 5473 c-11 -10 -8 -93 3 -93 6 0 10 23 10 50 0 51 -1 55 -13 43z"/>
<path d="M2955 5408 c-5 -24 -9 -47 -9 -53 -1 -6 31 -11 72 -12 39 -1 72 0 72
3 0 10 -111 104 -122 104 -3 0 -9 -19 -13 -42z"/>
<path d="M2330 5412 c0 -11 4 -23 9 -27 6 -3 8 4 6 16 -6 30 -15 37 -15 11z"/>
<path d="M3859 5385 c-7 -40 -5 -95 4 -92 14 4 18 67 7 87 -5 8 -10 11 -11 5z"/>
<path d="M2510 5365 c-7 -9 -11 -18 -8 -20 3 -3 11 1 18 10 7 9 11 18 8 20 -3
3 -11 -1 -18 -10z"/>
<path d="M2824 5365 c4 -24 16 -30 16 -7 0 12 -4 22 -9 22 -5 0 -8 -7 -7 -15z"/>
<path d="M2470 5325 c-7 -9 -10 -18 -7 -21 3 -3 10 4 17 15 13 25 8 27 -10 6z"/>
<path d="M3313 5333 c-13 -2 -23 -7 -23 -9 0 -3 20 -30 45 -61 l45 -55 0 66
c0 72 0 72 -67 59z"/>
<path d="M4620 5326 c0 -27 3 -29 52 -31 26 -2 72 -14 102 -28 31 -14 56 -23
56 -20 0 12 -43 64 -63 75 -12 6 -50 13 -84 15 -52 4 -63 2 -63 -11z"/>
<path d="M2675 5320 c-7 -12 -10 -11 43 -14 29 -2 42 2 42 11 0 16 -75 18 -85
3z"/>
<path d="M4982 5280 c-28 -17 -59 -57 -50 -65 12 -12 77 -12 103 1 34 16 61
52 48 64 -18 18 -72 18 -101 0z"/>
<path d="M2194 5236 c-10 -8 -17 -16 -14 -19 10 -9 97 -57 103 -57 13 0 -16
61 -36 75 -26 18 -28 18 -53 1z"/>
<path d="M2459 5229 c-10 -6 -7 -9 14 -9 29 0 35 5 14 13 -8 3 -20 1 -28 -4z"/>
<path d="M3555 5198 c-22 -11 -42 -22 -44 -24 -11 -10 105 -104 127 -104 4 0
1 4 -5 8 -7 5 -16 36 -19 70 -4 35 -10 64 -13 66 -3 2 -24 -5 -46 -16z"/>
<path d="M3203 5123 c-44 -48 -80 -89 -78 -91 5 -6 47 19 69 41 31 29 79 57
99 57 20 0 20 3 3 48 l-12 33 -81 -88z"/>
<path d="M2104 5185 c4 -24 16 -30 16 -7 0 12 -4 22 -9 22 -5 0 -8 -7 -7 -15z"/>
<path d="M2768 5178 c-9 -13 -32 -41 -51 -62 -20 -22 -34 -42 -32 -46 3 -4 24
-13 49 -19 24 -6 50 -13 59 -17 12 -4 15 0 12 23 -3 15 -6 52 -9 81 -4 64 -9
70 -28 40z"/>
<path d="M3857 5180 c-3 -11 -2 -20 3 -20 4 0 10 9 13 20 3 11 2 20 -3 20 -4
0 -10 -9 -13 -20z"/>
<path d="M3450 5090 c0 -11 5 -20 10 -20 6 0 10 9 10 20 0 11 -4 20 -10 20 -5
0 -10 -9 -10 -20z"/>
<path d="M4980 5043 c0 -30 9 -27 15 6 2 11 0 21 -6 21 -5 0 -9 -12 -9 -27z"/>
<path d="M2654 5025 c-23 -43 -31 -140 -15 -165 8 -12 14 -11 36 10 22 21 25
30 20 60 -4 19 -10 58 -14 85 l-7 50 -20 -40z"/>
<path d="M3622 5021 c6 -23 15 -40 21 -38 20 6 18 23 -7 52 l-25 29 11 -43z"/>
<path d="M2810 5011 c0 -10 30 -24 37 -17 3 2 -5 9 -16 16 -12 6 -21 7 -21 1z"/>
<path d="M3332 5004 c-13 -9 -29 -13 -37 -10 -17 6 -80 -78 -70 -94 3 -6 22
-10 41 -10 34 0 34 1 34 44 l0 44 45 6 c29 5 45 12 45 22 0 19 -30 18 -58 -2z"/>
<path d="M4567 4869 c11 -12 29 -19 39 -17 16 3 13 7 -13 21 -43 23 -52 21
-26 -4z"/>
<path d="M4630 4860 c0 -5 5 -10 11 -10 5 0 7 5 4 10 -3 6 -8 10 -11 10 -2 0
-4 -4 -4 -10z"/>
<path d="M1805 4776 c45 -120 67 -171 74 -179 4 -4 30 2 58 14 70 29 102 88
107 194 l1 30 -132 1 -131 2 23 -62z"/>
<path d="M4660 4825 c7 -8 17 -15 22 -15 6 0 5 7 -2 15 -7 8 -17 15 -22 15 -6
0 -5 -7 2 -15z"/>
<path d="M2844 4694 c3 -9 9 -27 12 -40 8 -30 20 -31 26 -1 6 36 -2 57 -24 57
-14 0 -18 -5 -14 -16z"/>
<path d="M2734 4596 c0 -14 4 -22 8 -20 4 3 8 14 8 25 0 10 -4 19 -8 19 -4 0
-8 -11 -8 -24z"/>
<path d="M2305 4542 c-16 -16 -37 -36 -45 -46 -14 -18 -13 -19 35 -11 28 4 57
9 65 10 8 2 24 4 35 4 17 1 15 6 -17 36 -20 19 -38 35 -40 35 -2 0 -16 -13
-33 -28z"/>
<path d="M1842 4481 c-5 -3 -10 -25 -10 -47 l-1 -42 37 5 c20 3 39 7 41 9 3 2
0 21 -5 42 -7 28 -14 37 -31 38 -12 1 -26 -2 -31 -5z"/>
<path d="M2580 4383 c-8 -3 -22 -12 -30 -19 -9 -7 -34 -14 -58 -15 -45 -3 -50
-13 -36 -67 5 -18 12 -21 33 -18 14 2 31 5 37 5 6 1 11 11 11 24 1 50 3 53 45
63 23 5 43 15 46 22 4 12 -21 15 -48 5z"/>
<path d="M2239 4343 c-12 -3 -14 -12 -10 -41 6 -33 10 -37 39 -40 21 -2 32 1
33 10 4 80 5 78 -21 77 -14 -1 -32 -3 -41 -6z"/>
<path d="M1567 4253 c-3 -5 -1 -17 4 -28 7 -17 8 -17 8 8 1 27 -4 34 -12 20z"/>
<path d="M2190 4100 c0 -17 5 -19 33 -13 39 7 41 9 32 22 -3 6 -19 11 -36 11
-22 0 -29 -5 -29 -20z"/>
<path d="M2329 3978 c-5 -47 -2 -72 9 -76 8 -2 12 11 12 42 0 25 -4 46 -10 46
-5 0 -11 -6 -11 -12z"/>
<path d="M1415 3830 c4 -25 9 -47 11 -49 5 -5 254 -8 254 -3 0 2 -7 16 -15 32
-18 35 -40 47 -80 43 -95 -8 -144 -6 -160 7 -16 14 -17 11 -10 -30z"/>
<path d="M1523 3719 c-48 -10 -103 -54 -103 -83 0 -3 30 -6 68 -6 50 0 76 5
101 21 l34 20 26 -25 c34 -33 37 -32 35 2 -1 15 -3 38 -3 52 -1 24 -4 25 -66
25 -35 0 -77 -3 -92 -6z"/>
<path d="M2239 3488 c-4 -46 -2 -72 7 -75 14 -5 17 74 4 82 -6 3 -11 0 -11 -7z"/>
<path d="M1677 3403 c-43 -18 -44 -38 -1 -37 35 1 104 8 104 10 0 0 -8 11 -19
22 -21 25 -32 26 -84 5z"/>
<path d="M2138 3360 l-4 -41 50 3 c27 2 51 8 53 13 3 9 -75 65 -89 65 -3 0 -8
-18 -10 -40z"/>
<path d="M2226 3283 c10 -47 13 -53 27 -53 16 0 12 46 -6 68 -16 21 -28 13
-21 -15z"/>
<path d="M2045 3250 c3 -5 24 -10 45 -10 21 0 42 5 45 10 4 6 -13 10 -45 10
-32 0 -49 -4 -45 -10z"/>
<path d="M1787 3218 c-2 -7 -4 -26 -3 -43 1 -25 6 -31 29 -33 31 -4 33 4 10
53 -18 37 -28 43 -36 23z"/>
<path d="M1910 3205 c0 -8 17 -12 45 -12 28 0 45 4 45 12 0 7 -17 11 -45 11
-28 0 -45 -4 -45 -11z"/>
<path d="M1522 3168 c-7 -7 -12 -17 -12 -23 0 -6 -9 -27 -19 -47 -11 -19 -17
-39 -14 -42 4 -3 30 -6 60 -6 l53 0 0 59 c0 44 -4 60 -16 65 -24 9 -39 7 -52
-6z"/>
<path d="M1699 3123 c0 -10 -2 -30 -3 -45 -1 -17 3 -28 11 -28 9 0 13 15 13
45 0 25 -4 45 -10 45 -5 0 -10 -8 -11 -17z"/>
<path d="M1940 3078 c0 -4 3 -8 8 -8 4 0 31 -18 60 -40 29 -22 56 -40 61 -40
10 0 24 80 16 88 -9 9 -145 9 -145 0z"/>
<path d="M2301 3045 l-34 -12 30 -10 c33 -12 63 -1 63 22 0 17 -12 17 -59 0z"/>
<path d="M1373 2965 c4 -26 8 -50 11 -52 7 -7 73 16 85 30 7 10 5 13 -10 14
-12 1 -37 14 -56 29 l-35 27 5 -48z"/>
<path d="M1549 2980 c-19 -15 -21 -19 -7 -20 27 0 48 11 48 26 0 19 -14 17
-41 -6z"/>
<path d="M2158 2993 c-22 -5 -24 -23 -3 -24 50 -4 62 -1 62 16 0 15 -23 18
-59 8z"/>
<path d="M1490 2966 c0 -10 4 -15 9 -11 5 3 12 -3 14 -12 4 -15 5 -15 6 -2 0
9 -6 22 -14 29 -12 10 -15 9 -15 -4z"/>
<path d="M1870 2930 c68 -53 109 -80 113 -73 3 5 8 27 12 51 l7 42 -79 0 -78
0 25 -20z"/>
<path d="M1874 2753 c2 -14 10 -17 32 -14 58 7 62 31 5 31 -32 0 -39 -3 -37
-17z"/>
<path d="M1605 2619 c-11 -17 -2 -18 19 -3 17 12 17 14 4 14 -9 0 -20 -5 -23
-11z"/>
<path d="M2772 2460 c6 -22 14 -40 19 -40 5 0 9 18 9 40 0 33 -4 40 -19 40
-17 0 -18 -4 -9 -40z"/>
<path d="M4706 2443 c-9 -29 0 -56 18 -59 15 -2 17 3 12 28 -3 17 -6 34 -6 39
0 16 -19 9 -24 -8z"/>
<path d="M2486 2287 c-44 -21 -43 -25 8 -31 39 -5 56 10 39 36 -7 12 -15 11
-47 -5z"/>
<path d="M5016 2271 c-6 -9 -5 -73 1 -84 4 -6 123 79 123 88 0 7 -120 3 -124
-4z"/>
<path d="M4872 2214 c-19 -29 -21 -38 -10 -45 19 -13 38 -11 39 4 0 6 2 27 4
45 4 41 -4 40 -33 -4z"/>
<path d="M5215 2105 c-59 -44 -74 -51 -94 -43 -13 4 -42 13 -65 18 -22 5 -63
16 -90 25 l-49 15 6 -35 c7 -45 39 -90 78 -109 16 -8 44 -24 62 -35 32 -19 33
-19 72 -2 50 23 72 44 131 126 40 56 45 69 33 80 -12 11 -26 4 -84 -40z"/>
<path d="M2243 2137 c-21 -11 -16 -16 82 -85 57 -39 106 -72 109 -72 3 0 10
17 17 38 11 38 12 39 63 41 55 2 70 10 61 32 -4 11 -27 14 -93 14 -69 1 -97 5
-134 23 -53 25 -73 27 -105 9z"/>
<path d="M2027 2039 c-20 -11 -23 -39 -4 -39 13 1 85 38 77 41 -22 7 -58 6
-73 -2z"/>
<path d="M4158 1993 c-8 -10 1 -13 41 -13 28 0 51 5 51 10 0 6 -3 10 -7 11
-48 5 -77 2 -85 -8z"/>
<path d="M4600 1967 c-44 -13 -42 -11 -34 -30 4 -11 14 -15 32 -12 111 17 103
14 84 35 -18 22 -30 23 -82 7z"/>
<path d="M4048 1955 c-26 -6 -54 -17 -62 -24 -9 -7 -42 -14 -75 -14 l-59 -1
24 -64 c13 -36 24 -68 24 -72 0 -5 -28 3 -62 17 -71 28 -73 28 -199 -31 l-66
-31 19 -65 c26 -92 24 -134 -13 -215 -17 -39 -32 -71 -34 -73 -2 -2 -30 10
-64 27 -33 17 -63 31 -65 31 -10 0 -66 -125 -66 -145 1 -47 15 -46 69 5 53 50
53 50 120 50 63 0 69 2 99 33 30 31 32 38 32 101 0 56 2 66 13 57 10 -8 25 1
63 38 47 46 52 48 89 42 37 -6 46 -3 108 43 37 27 70 53 73 57 2 5 -2 34 -10
66 -8 32 -17 75 -20 95 l-7 36 58 8 c32 4 61 7 66 6 4 -1 7 4 7 12 0 23 -11
25 -62 11z"/>
<path d="M3175 1873 c28 -67 51 -83 116 -83 48 0 71 -7 134 -39 42 -22 82 -38
90 -35 9 4 13 21 12 56 l-2 51 -115 28 c-63 16 -126 31 -140 34 -14 2 -41 9
-60 15 -51 15 -52 14 -35 -27z"/>
<path d="M4205 1860 c-4 -6 6 -10 22 -10 22 0 25 2 13 10 -19 12 -27 12 -35 0z"/>
<path d="M2819 1733 c0 -5 -1 -32 -3 -60 -2 -48 0 -53 20 -53 19 0 21 4 14 38
-3 20 -7 40 -8 45 -1 4 -2 14 -2 22 0 15 -19 22 -21 8z"/>
<path d="M4939 1568 c-5 -17 -4 -48 3 -48 4 0 8 11 8 25 0 20 -7 34 -11 23z"/>
<path d="M3898 1538 c5 -21 11 -22 46 -8 38 14 31 29 -12 27 -32 -1 -38 -5
-34 -19z"/>
<path d="M4026 1483 c13 -56 34 -60 34 -8 0 28 -4 35 -20 35 -17 0 -19 -4 -14
-27z"/>
<path d="M3731 1388 c17 -29 41 -64 52 -77 20 -22 97 -64 105 -57 5 5 -58 108
-81 135 -21 22 -36 30 -85 45 -22 7 -21 6 9 -46z"/>
<path d="M2654 1408 c-7 -11 -14 -88 -8 -88 8 0 53 83 49 90 -9 14 -32 12 -41
-2z"/>
<path d="M4250 1410 c0 -10 6 -12 40 -12 42 0 51 2 45 12 -3 6 -24 10 -46 10
-21 0 -39 -4 -39 -10z"/>
<path d="M4102 1332 c-36 -11 -31 -27 10 -28 30 -1 36 2 35 17 -1 20 -7 21
-45 11z"/>
<path d="M2910 1311 c0 -17 4 -19 32 -10 18 5 34 9 35 9 2 0 3 5 3 10 0 6 -16
10 -35 10 -28 0 -35 -4 -35 -19z"/>
</g>
</svg>
