<?xml version="1.0" encoding="utf-8"?>
<!-- Generator: Adobe Illustrator 16.0.4, SVG Export Plug-In . SVG Version: 6.00 Build 0)  -->
<!DOCTYPE svg PUBLIC "-//W3C//DTD SVG 1.1//EN" "http://www.w3.org/Graphics/SVG/1.1/DTD/svg11.dtd">
<svg version="1.1" id="Layer_1" xmlns="http://www.w3.org/2000/svg" xmlns:xlink="http://www.w3.org/1999/xlink" x="0px" y="0px"
	 width="140.745px" height="52.2px" viewBox="0 0 140.745 52.2" enable-background="new 0 0 140.745 52.2" xml:space="preserve">
<g>
	<polygon fill="#FFFFFF" points="90.301,20.683 90.301,20 87.7,20 87.7,26.725 90.301,26.725 90.301,26.042 88.404,26.042 
		88.404,23.652 89.949,23.652 89.949,22.979 88.404,22.979 88.404,20.683 	"/>
	<polygon fill="#FFFFFF" points="89.685,18.275 89.685,8.976 88.822,8.976 88.822,15.698 86.798,8.976 85.562,8.976 85.562,18.275 
		86.436,18.275 86.436,10.756 88.672,18.275 	"/>
	<path fill="#FFFFFF" d="M84.647,16.029v-4.807c0-1.421-0.662-2.339-2.012-2.339c-1.337,0-1.999,0.918-1.999,2.339v4.807
		c0,1.409,0.662,2.339,1.999,2.339C83.985,18.368,84.647,17.438,84.647,16.029z M83.673,16.083c0,0.851-0.324,1.342-1.037,1.342
		c-0.699,0-1.036-0.491-1.036-1.342v-4.914c0-0.837,0.337-1.343,1.036-1.343c0.713,0,1.037,0.506,1.037,1.343V16.083z"/>
	<polygon fill="#FFFFFF" points="82.367,26.725 82.367,20.683 83.532,20.683 83.532,20 80.506,20 80.506,20.683 81.671,20.683 
		81.671,26.725 	"/>
	<polygon fill="#FFFFFF" points="86.976,26.725 86.976,20 86.271,20 86.271,23.028 84.716,23.028 84.716,20 84.014,20 
		84.014,26.725 84.716,26.725 84.716,23.699 86.271,23.699 86.271,26.725 	"/>
	<path fill="#FFFFFF" d="M43.185,2.27c35.242,0.754,41.837,4.125,41.837,4.125s5.037-3.327,18.554-3.726
		c14.147-0.418,22.463,1.423,22.463,1.423l4.779,0.533c0,0-15.478-8.876-46.91-1.795c0,0-72.702-10.257-74.309,8.283l2.739,0.699
		C12.338,11.812,12.085,1.604,43.185,2.27z"/>
	<path fill="#FFFFFF" d="M123.949,14.013l0.097-1.572c0.102-1.645-0.213-2.883-0.958-3.785c-0.773-0.936-1.961-1.447-3.629-1.563
		l-4.894-0.339l-1.258,20.492l3.29,0.229l0.506-8.242l0.965,0.067c1.677,0.117,2.234,0.752,2.132,2.426l-0.186,3.034
		c-0.078,1.273-0.016,1.912,0.257,2.631l0.133,0.349l3.521,0.244l-0.434-0.932c-0.256-0.549-0.237-1.248-0.189-2.038l0.186-3.002
		c0.117-1.902-0.358-3.292-1.415-4.151C123.206,17.146,123.836,15.859,123.949,14.013z M120.772,12.409l-0.113,1.846
		c-0.098,1.6-0.767,1.913-1.89,1.913c-0.137,0-0.277-0.006-0.425-0.016l-1.049-0.072l0.366-5.944l1.548,0.107
		c0.623,0.043,1.04,0.225,1.275,0.555C120.721,11.129,120.818,11.671,120.772,12.409z"/>
	<path fill="#FFFFFF" d="M101.543,14.969v-2.462c0-3.691-1.808-5.808-4.961-5.808c-3.134,0-4.932,2.117-4.932,5.808v10.71
		c0,3.692,1.798,5.81,4.932,5.81c3.153,0,4.961-2.117,4.961-5.81v-3.171h-3.185v3.292c0,2.142-0.982,2.389-1.719,2.389
		c-0.738,0-1.721-0.247-1.721-2.389v-10.95c0-2.143,0.982-2.391,1.721-2.391c0.8,0,1.719,0.272,1.719,2.391v2.58H101.543z"/>
	<path fill="#FFFFFF" d="M102.936,6.387l-0.358,16.308c-0.082,3.708,1.659,5.88,4.775,5.957c0.057,0.002,0.112,0.002,0.169,0.002
		c3.027,0,4.81-2.083,4.89-5.715l0.358-16.308l-3.157-0.078l-0.361,16.429c-0.046,2.103-0.979,2.346-1.678,2.346l-0.065-0.001
		c-0.594-0.014-1.012-0.208-1.276-0.593c-0.276-0.4-0.407-1.019-0.39-1.837l0.361-16.429L102.936,6.387z"/>
	<polygon fill="#FFFFFF" points="8.384,31.504 9.534,31.409 10.084,31.315 10.479,31.258 11.247,31.1 11.791,30.935 12.162,30.833 
		12.529,30.684 12.853,30.539 13.341,30.237 13.617,30.048 14.04,29.751 14.291,29.542 14.687,29.177 14.937,28.944 15.307,28.534 
		15.47,28.331 15.46,28.19 15.334,27.988 15.214,27.879 14.994,27.614 14.343,26.935 14.101,26.671 13.712,26.231 13.472,25.99 
		13.373,25.857 13.112,25.642 12.857,25.498 12.654,25.467 12.524,25.526 12.316,25.708 12.046,25.967 11.646,26.285 11.371,26.475 
		11.052,26.666 10.71,26.861 10.173,27.119 9.85,27.264 9.676,27.326 9.372,27.422 8.863,27.464 8.331,27.487 7.971,27.446 
		7.474,27.344 7.132,27.232 6.672,27.033 6.37,26.846 5.922,26.504 5.657,26.243 5.287,25.752 5.083,25.416 4.899,25.029 
		4.763,24.686 4.612,24.154 4.563,23.803 4.498,23.215 4.47,22.84 4.462,22.132 4.48,21.775 4.517,21.37 4.599,20.984 4.706,20.621 
		4.836,20.277 4.968,19.958 5.143,19.612 5.386,19.285 5.53,19.131 5.823,18.87 6.247,18.598 6.526,18.456 6.847,18.287 
		7.322,18.081 7.669,17.958 8.151,17.87 8.506,17.84 9.062,17.841 9.399,17.883 9.896,17.984 10.214,18.076 10.719,18.27 
		11.018,18.411 11.463,18.705 11.716,18.825 11.875,18.859 12.028,18.823 12.177,18.739 12.363,18.534 12.464,18.408 12.687,18.104 
		13.028,17.603 13.252,17.324 13.48,17.092 13.706,16.837 13.93,16.557 14.11,16.282 14.228,16.082 14.237,15.893 14.178,15.708 
		14.011,15.556 13.87,15.45 13.612,15.282 12.889,14.823 12.282,14.448 11.959,14.285 11.449,14.02 11.129,13.905 10.337,13.734 
		9.822,13.683 9.507,13.639 8.68,13.589 8.191,13.607 7.858,13.611 7.375,13.699 6.693,13.803 6.321,13.882 5.95,13.984 
		5.211,14.235 4.866,14.382 4.501,14.556 3.862,14.94 3.566,15.154 3.292,15.367 2.623,15.943 2.375,16.201 2.107,16.484 
		1.861,16.764 1.618,17.092 1.399,17.442 1.2,17.766 1.026,18.112 0.853,18.482 0.702,18.849 0.574,19.215 0.443,19.558 
		0.323,20.04 0.237,20.379 0.153,20.742 0.09,21.101 0.04,21.625 0,21.985 0.006,22.363 0.021,23.166 0.05,23.566 0.056,23.945 
		0.061,24.299 0.122,24.838 0.193,25.186 0.466,25.874 0.657,26.332 1.061,27.291 1.319,27.767 1.498,28.083 1.7,28.397 
		1.923,28.709 2.193,29.042 2.458,29.327 2.745,29.587 3.358,30.057 3.683,30.243 3.986,30.43 4.268,30.619 4.707,30.842 
		5.005,30.959 5.506,31.107 6.522,31.307 6.862,31.395 7.245,31.458 7.627,31.498 8.006,31.513 	"/>
	<path fill="#FFFFFF" d="M7.888,22.183c0.042,0.564,0.505,0.985,1.035,0.94c0.531-0.044,0.927-0.537,0.885-1.101
		c-0.041-0.564-0.505-0.985-1.036-0.941C8.242,21.125,7.846,21.619,7.888,22.183z"/>
	<path fill="#FFFFFF" d="M126.524,30.958c-0.421-0.203-1.449-0.922-10.349-0.922c-1.673,0-2.902,0.026-2.95,0.028
		c-0.092,0.006-9.695,0.57-63.993,1.551c-1.017,0.017-2.073,0.026-3.142,0.026h-0.003c-4.433,0-8.685-0.149-12.436-0.28
		c-3.17-0.11-6.164-0.215-8.798-0.215c-6.707,0-13.113,0.903-13.113,6.923c0,1.513,0.606,2.896,3.27,4.02
		c1.593,0.674,2.993,1.243,6.118,1.243c2.32,0,4.931-0.173,7.456-0.34c2.084-0.139,4.239-0.282,6.254-0.331
		c2.063-0.05,4.173-0.075,6.449-0.075c4.254,0,8.206,0.085,12.028,0.168c3.217,0.069,6.257,0.136,9.013,0.136
		c7.693,0,13.157-0.485,16.009-2.758c2.64,2.231,11.715,3.408,26.356,3.408l0.803-0.001c8.617-0.024,14.95-0.809,18.966-2.337
		l-0.865,8.046L13.229,50.589L9.773,32.774l-1.85,0.339L10.899,52.2l114.646-0.962l0.809-0.006l1.624-12.043
		c0.782-0.714,1.296-1.515,1.524-2.403C130.287,33.75,128.012,31.675,126.524,30.958z M105.492,40.745l-0.798,0.001
		c-21.377,0-23.706-1.584-25.114-4.848L77.772,38c-2.188,2.542-8.714,2.893-15.443,2.893c-2.737,0-5.768-0.065-8.975-0.135
		c-3.832-0.082-7.793-0.168-12.066-0.168c-2.29,0-4.414,0.025-6.492,0.075c-2.053,0.05-4.226,0.195-6.328,0.334
		c-2.611,0.173-5.077,0.337-7.339,0.337c-2.841,0-4.876-0.275-6.223-0.844c-1.41-0.596-2.039-1.466-2.039-2.822
		c0-3.301,3.249-4.527,11.987-4.527c2.603,0,5.582,0.104,8.737,0.215c3.765,0.131,8.033,0.28,12.497,0.28h0.003
		c1.078,0,2.146-0.01,3.173-0.026c54.337-0.981,63.979-1.549,64.035-1.553c0.013,0,1.225-0.026,2.877-0.026
		c8.089,0,9.264,0.609,9.385,0.639c1.644,0.401,2.474,2.264,2.132,3.584C127.375,37.483,124.837,40.689,105.492,40.745z"/>
	<path fill="#FFFFFF" d="M133.179,20.432c-0.48-0.051-0.908,0.323-0.956,0.835c-0.048,0.512,0.304,0.967,0.784,1.017
		c0.482,0.05,0.91-0.323,0.957-0.835C134.012,20.937,133.66,20.482,133.179,20.432z"/>
	<path fill="#FFFFFF" d="M140.733,20.633l-0.144-0.672l-0.103-0.449l-0.221-0.943l-0.163-0.477l-0.115-0.319l-0.135-0.321
		l-0.154-0.323l-0.196-0.348l-0.197-0.306l-0.222-0.286l-0.485-0.533l-0.269-0.224l-0.247-0.223l-0.227-0.22l-0.366-0.28
		l-0.253-0.158l-0.434-0.22l-0.894-0.357l-0.295-0.14l-0.34-0.123l-0.34-0.102l-0.345-0.079l-0.344-0.057l-1.062-0.111l-0.514-0.01
		l-0.369-0.018l-0.722,0.013l-0.521,0.056l-0.354,0.029l-0.355,0.072l-0.07,0.016l0.054-0.51l0.049-0.53l0.144-1.796l0.3-3.253
		l0.027-0.534l0.036-0.867l0.012-0.367l-0.027-0.204l-0.238-0.092l-1.376-0.143l-1.024-0.041l-0.356-0.037l-0.528-0.089
		l-0.336-0.001l-0.179-0.019l-0.224,0.01l-0.146,0.119l-0.1,0.358l-0.125,1.831l-0.263,2.855L125.792,12l-0.049,0.531l-0.147,1.828
		l-0.263,2.855l-0.143,1.795l-0.049,0.531l-0.103,1.833l-0.072,0.529l-0.231,1.784l-0.071,0.529l-0.098,1.8l-0.047,0.499l-0.023,0.5
		l-0.049,0.53l-0.033,0.835l-0.031,0.332l0.059,0.106l0.127,0.08l1.097,0.249l1.375,0.143l1.129,0.152l0.313-0.001l0.184-0.048
		l0.085-0.192l0.033-0.356l0.005,0.005l0.274,0.16l0.694,0.291l0.461,0.137l0.28,0.095l0.744,0.187l0.447,0.068l0.304,0.054
		l0.453,0.004l0.636,0.023l0.352-0.008l0.353-0.029l0.71-0.1l0.336-0.075l0.359-0.094l0.64-0.24l0.302-0.145l0.282-0.146
		l0.696-0.409l0.266-0.191l0.287-0.212l0.267-0.213l0.271-0.256l0.253-0.281l0.229-0.26l0.212-0.285l0.214-0.306l0.193-0.308
		L139.477,26l0.171-0.289l0.184-0.419l0.129-0.293l0.132-0.314l0.112-0.316l0.126-0.47l0.091-0.318l0.053-0.346l0.109-0.733
		l0.033-0.369l0.053-0.345l0.05-0.323l0.026-0.501L140.733,20.633z M136.547,21.138l-0.03,0.545l-0.031,0.347l-0.102,0.646
		l-0.069,0.322l-0.097,0.362l-0.133,0.337l-0.152,0.312l-0.172,0.289l-0.169,0.268l-0.212,0.285l-0.271,0.257l-0.155,0.114
		l-0.306,0.188l-0.429,0.174l-0.273,0.081l-0.318,0.098l-0.463,0.105l-0.335,0.053l-0.453-0.004l-0.326-0.034l-0.507-0.097
		l-0.3-0.097l-0.437-0.177l-0.275-0.138l-0.429-0.265l-0.251-0.179l-0.36-0.344l-0.191-0.139l0.026-0.281l0.099-1.8l0.268-2.888
		l0.172-1.466l0.206-0.135l0.411-0.22l0.278-0.125l0.32-0.12l0.341-0.118l0.528-0.141l0.316-0.077l0.167-0.026l0.292-0.035
		l0.469,0.048l0.488,0.074l0.32,0.098l0.436,0.177l0.296,0.163l0.387,0.259l0.247,0.223l0.356,0.388l0.199,0.284l0.263,0.508
		l0.133,0.343l0.109,0.383l0.072,0.336l0.056,0.51L136.547,21.138z"/>
	<path fill="#FFFFFF" d="M15.011,14.025v9.586c0,3.295,1.865,5.261,4.988,5.261c3.142,0,5.017-1.966,5.017-5.261v-9.586
		c0-3.295-1.875-5.262-5.017-5.262C16.876,8.763,15.011,10.729,15.011,14.025z M21.732,14.718v8.202c0,1.84-0.926,2.075-1.733,2.075
		c-0.743,0-1.732-0.215-1.732-2.075v-8.202c0-1.862,0.989-2.078,1.732-2.078C20.743,12.64,21.732,12.855,21.732,14.718z"/>
	<path fill="#FFFFFF" d="M47.075,14.103v-2.45c0-3.671-1.798-5.776-4.934-5.776c-3.117,0-4.905,2.105-4.905,5.776v10.644
		c0,3.67,1.788,5.777,4.905,5.777c3.136,0,4.934-2.106,4.934-5.777v-3.156h-3.173v3.276c0,2.125-0.973,2.371-1.704,2.371
		c-0.733,0-1.706-0.246-1.706-2.371V11.536c0-2.127,0.973-2.373,1.706-2.373c0.793,0,1.704,0.27,1.704,2.373v2.567H47.075z"/>
	<polygon fill="#FFFFFF" points="69.426,10.167 69.426,6.881 60.335,6.881 60.335,28.666 69.426,28.666 69.426,25.379 
		63.618,25.379 63.618,19.255 68.35,19.255 68.35,15.998 63.618,15.998 63.618,10.167 	"/>
	<path fill="#FFFFFF" d="M26.234,6.881v16.215c0,3.689,1.778,5.805,4.878,5.805c3.118,0,4.906-2.116,4.906-5.805V6.881h-3.146
		v16.334c0,2.125-0.957,2.37-1.677,2.37c-0.794,0-1.705-0.269-1.705-2.37V6.881H26.234z"/>
	<polygon fill="#FFFFFF" points="58.492,27.868 58.492,6.082 55.208,6.082 55.208,15.347 51.577,15.347 51.577,6.082 48.294,6.082 
		48.294,27.868 51.577,27.868 51.577,18.602 55.208,18.602 55.208,27.868 	"/>
	<path fill="#FFFFFF" d="M69.617,21.717v1.708c0,3.462,1.788,5.447,4.906,5.447c3.135,0,4.932-1.985,4.932-5.447
		c0-3.183-1.99-4.803-3.747-6.231c-1.477-1.203-2.752-2.24-2.752-3.997c0-1.902,0.881-2.145,1.649-2.145
		c0.815,0,1.649,0.258,1.649,2.172v1.238h3.173v-1.127c0-3.463-1.777-5.449-4.878-5.449c-3.082,0-4.85,1.986-4.85,5.449
		c0,3.185,1.987,4.804,3.74,6.233c1.466,1.195,2.731,2.227,2.731,3.967c0,1.947-0.973,2.173-1.706,2.173
		c-0.73,0-1.704-0.226-1.704-2.173v-1.817H69.617z"/>
</g>
</svg>
