<?xml version="1.0" encoding="utf-8"?>
<!-- Generator: Adobe Illustrator 16.0.4, SVG Export Plug-In . SVG Version: 6.00 Build 0)  -->
<!DOCTYPE svg PUBLIC "-//W3C//DTD SVG 1.1//EN" "http://www.w3.org/Graphics/SVG/1.1/DTD/svg11.dtd">
<svg version="1.1" id="Layer_1" xmlns="http://www.w3.org/2000/svg" xmlns:xlink="http://www.w3.org/1999/xlink" x="0px" y="0px"
	 width="9.565px" height="17.457px" viewBox="-30.04 11.676 9.565 17.457" enable-background="new -30.04 11.676 9.565 17.457"
	 xml:space="preserve">
<path fill="#FFFFFF" d="M-23.57,11.814c-0.397-0.091-0.798-0.138-1.189-0.138c-1.828,0-3.142,0.988-3.516,2.642
	c-0.189,0.839-0.178,1.677,0.033,2.492c-0.846,0.38-1.378,1.154-1.545,2.257c-0.158,1.045,0.111,2.157,0.779,3.228
	c-0.552,0.524-0.89,1.269-1.006,2.217c-0.158,1.295,0.423,2.786,1.381,3.545c0.865,0.684,2.065,1.076,3.294,1.076
	c0.894,0,1.309-0.045,2.402-0.729l-1.351-1.246c-0.361,0.107-0.768,0.173-1.186,0.173c-0.922,0-1.782-0.279-2.422-0.787
	c-0.55-0.437-0.831-1.091-0.751-1.75c0.068-0.556,0.282-0.953,0.652-1.211c1.356,1.412,3.671,2.867,5.112,2.867
	c0.325,0,0.595-0.074,0.802-0.22c0.348-0.243,0.547-0.677,0.547-1.19c0-1.059-0.845-2.407-2.319-3.135
	c0.712,0.179,1.41,0.104,1.957-0.247c0.31-0.201,0.495-0.583,0.495-1.021c0-2.022-2.807-3.705-4.819-4.021
	c-0.209-0.033-0.414-0.053-0.608-0.058c-0.209-0.575-0.249-1.156-0.119-1.731c0.194-0.858,1.016-1.37,2.197-1.37
	c0.307,0,0.62,0.036,0.929,0.106c1.281,0.296,1.963,1.036,1.963,1.457v0.25h1.383v-0.25C-20.475,13.181-22.143,12.144-23.57,11.814z
	 M-22.697,24.92c-0.503,0.137-2.317-0.492-3.959-1.928C-24.584,22.067-22.538,24.348-22.697,24.92z M-22.652,20.301
	c-1.433,0.547-3.354-0.969-3.473-2.131C-24.507,18.502-23.064,19.61-22.652,20.301z M-24.736,21.569
	c-0.854-0.235-1.889-0.258-2.917,0.004c-0.44-0.587-0.892-1.398-0.777-2.158c0.079-0.521,0.348-0.849,0.818-0.996
	C-27.251,19.579-26.059,20.902-24.736,21.569z"/>
</svg>
