<?xml version="1.0" encoding="utf-8"?>
<!-- Generator: Adobe Illustrator 16.0.4, SVG Export Plug-In . SVG Version: 6.00 Build 0)  -->
<!DOCTYPE svg PUBLIC "-//W3C//DTD SVG 1.1//EN" "http://www.w3.org/Graphics/SVG/1.1/DTD/svg11.dtd">
<svg version="1.1" id="Layer_1" xmlns="http://www.w3.org/2000/svg" xmlns:xlink="http://www.w3.org/1999/xlink" x="0px" y="0px"
	 width="13.175px" height="24.165px" viewBox="0 0 13.175 24.165" enable-background="new 0 0 13.175 24.165" xml:space="preserve">
<g>
	<defs>
		<rect id="SVGID_1_" width="13.175" height="24.165"/>
	</defs>
	<clipPath id="SVGID_2_">
		<use xlink:href="#SVGID_1_"  overflow="visible"/>
	</clipPath>
	<path clip-path="url(#SVGID_2_)" fill="#606A70" d="M5.367,6.245c1.683,1.334,4.031,2.063,5.022,2.131
		C9.793,7.684,7.707,6.577,5.367,6.245 M4.599,11.067c2.374,1.436,4.997,2.065,5.724,1.927c-0.33-0.554-2.539-1.736-5.201-1.908
		C4.959,11.075,4.784,11.068,4.599,11.067 M3.263,15.363c0.103,0.05,0.207,0.097,0.309,0.142c2.691,1.167,6.026,1.042,6.525,0.585
		c-0.283-0.545-3.323-1.31-6.157-0.864C3.758,15.255,3.521,15.299,3.263,15.363 M1.795,15.989c-0.309,0.234-0.519,0.536-0.519,0.919
		c0,0.27,0.042,0.526,0.125,0.768c0.021-0.012,0.042-0.023,0.063-0.035c0.661-0.363,1.529-0.565,2.583-0.602
		C3.208,16.769,2.428,16.417,1.795,15.989 M2.134,18.729c0.4,0.353,0.94,0.652,1.618,0.899c2.522,0.916,5.561,0.601,6.28,0.171
		c-0.722-0.706-4.653-1.931-7.159-1.333C2.574,18.538,2.331,18.627,2.134,18.729 M6.63,24.165c-1.604,0-3.3-0.345-4.539-1.024
		c-1.355-0.741-2.071-1.808-2.071-3.083c0-0.55,0.134-1.04,0.395-1.457C0.141,18.09,0,17.522,0,16.908
		c0-0.526,0.167-1.191,0.822-1.775c-0.779-0.913-0.839-1.84-0.72-2.517c0.174-0.98,0.715-1.724,1.57-2.201
		C0.625,9.334,0.199,8.229,0.429,7.178c0.243-1.108,1.055-1.842,2.313-2.144c-0.37-0.84-0.417-1.712-0.131-2.587
		C3.326,0.26,6.325-0.291,8.98,0.132c1.936,0.309,4.195,1.269,4.195,2.96h-1.277c0-0.591-1.166-1.388-3.119-1.7
		C6.664,1.055,4.282,1.446,3.825,2.844C3.602,3.524,3.696,4.205,4.101,4.879c0.339-0.003,0.695,0.015,1.071,0.056
		c2.717,0.295,6.663,1.911,6.663,3.775c0,0.354-0.205,0.656-0.551,0.811c-1.182,0.525-5-0.706-7.14-2.639
		C3.895,6.657,3.671,6.427,3.476,6.193c-0.837,0.102-1.618,0.429-1.8,1.258c-0.196,0.893,0.583,1.817,1.341,2.48
		c0.705-0.146,1.522-0.181,2.438-0.101c2.529,0.222,6.188,1.519,6.188,3.283c0,0.431-0.232,0.79-0.636,0.985
		c-1.492,0.725-5.853-0.923-8.282-2.761c-0.675,0.247-1.224,0.7-1.365,1.499c-0.114,0.646,0.144,1.181,0.572,1.618
		c0.02-0.008,0.04-0.016,0.06-0.025c0.964-0.396,2.294-0.612,3.745-0.612c1.954,0,5.65,0.48,5.65,2.303
		c0,0.282-0.107,0.808-0.823,1.168c-0.481,0.242-1.194,0.375-2.026,0.404c1.569,0.484,2.85,1.221,2.85,2.146
		c0,1.534-3.051,1.653-3.985,1.653c-1.751,0-3.485-0.343-4.757-0.943c-0.511-0.24-0.951-0.52-1.317-0.834
		c-0.024,0.119-0.03,0.235-0.03,0.342c0,0.791,0.473,1.452,1.407,1.964c2.078,1.139,5.624,1.067,6.959,0.214
		c0.471-0.302,0.453-0.556,0.447-0.64l1.274-0.086c0.047,0.705-0.32,1.345-1.034,1.802C9.455,23.883,8.08,24.165,6.63,24.165"/>
</g>
</svg>
