<?xml version="1.0" encoding="utf-8"?>
<!-- Generator: Adobe Illustrator 16.0.4, SVG Export Plug-In . SVG Version: 6.00 Build 0)  -->
<!DOCTYPE svg PUBLIC "-//W3C//DTD SVG 1.1//EN" "http://www.w3.org/Graphics/SVG/1.1/DTD/svg11.dtd">
<svg version="1.1" id="Layer_1" xmlns="http://www.w3.org/2000/svg" xmlns:xlink="http://www.w3.org/1999/xlink" x="0px" y="0px"
	 width="13.175px" height="24.165px" viewBox="0 0 13.175 24.165" enable-background="new 0 0 13.175 24.165" xml:space="preserve">
<g>
	<g>
		<defs>
			<rect id="SVGID_1_" width="13.175" height="24.165"/>
		</defs>
		<clipPath id="SVGID_2_">
			<use xlink:href="#SVGID_1_"  overflow="visible"/>
		</clipPath>
		<path clip-path="url(#SVGID_2_)" fill="#FFFFFF" d="M5.367,6.245c1.683,1.334,4.031,2.063,5.022,2.131
			C9.792,7.684,7.707,6.577,5.367,6.245 M4.599,11.067c2.374,1.436,4.997,2.064,5.725,1.928c-0.33-0.555-2.539-1.737-5.202-1.909
			C4.959,11.075,4.784,11.068,4.599,11.067 M3.263,15.363c0.103,0.05,0.207,0.097,0.309,0.142c2.691,1.168,6.026,1.043,6.525,0.586
			c-0.283-0.545-3.323-1.311-6.157-0.864C3.758,15.254,3.521,15.299,3.263,15.363 M1.795,15.989
			c-0.309,0.234-0.519,0.536-0.519,0.92c0,0.27,0.042,0.525,0.125,0.768c0.021-0.012,0.042-0.023,0.063-0.035
			c0.661-0.363,1.529-0.564,2.583-0.602C3.208,16.769,2.428,16.417,1.795,15.989 M2.134,18.729c0.4,0.354,0.94,0.652,1.618,0.898
			c2.522,0.916,5.561,0.602,6.281,0.172c-0.723-0.707-4.654-1.932-7.16-1.334C2.574,18.538,2.331,18.627,2.134,18.729 M6.63,24.165
			c-1.604,0-3.3-0.345-4.539-1.023C0.736,22.4,0.02,21.333,0.02,20.058c0-0.55,0.134-1.04,0.395-1.457
			C0.141,18.09,0,17.522,0,16.909c0-0.527,0.167-1.191,0.822-1.775c-0.779-0.913-0.839-1.84-0.72-2.518
			c0.174-0.98,0.715-1.724,1.57-2.201C0.625,9.334,0.199,8.229,0.429,7.178C0.672,6.07,1.484,5.336,2.742,5.034
			c-0.37-0.84-0.417-1.712-0.131-2.587C3.326,0.26,6.325-0.291,8.98,0.132c1.936,0.309,4.195,1.269,4.195,2.96h-1.277
			c0-0.591-1.166-1.388-3.119-1.7C6.664,1.055,4.282,1.446,3.825,2.844c-0.223,0.68-0.129,1.361,0.276,2.035
			C4.44,4.876,4.796,4.894,5.172,4.935c2.717,0.295,6.664,1.911,6.664,3.775c0,0.354-0.205,0.656-0.551,0.811
			c-1.183,0.525-5-0.706-7.141-2.639C3.895,6.657,3.671,6.427,3.476,6.193c-0.837,0.102-1.618,0.429-1.8,1.258
			C1.48,8.344,2.259,9.268,3.017,9.931C3.722,9.785,4.539,9.75,5.455,9.83c2.529,0.222,6.188,1.519,6.188,3.283
			c0,0.431-0.231,0.79-0.636,0.985c-1.492,0.725-5.854-0.924-8.282-2.761c-0.675,0.247-1.224,0.7-1.365,1.5
			c-0.114,0.646,0.144,1.181,0.572,1.617c0.02-0.008,0.04-0.016,0.06-0.024c0.964-0.396,2.294-0.612,3.745-0.612
			c1.954,0,5.65,0.48,5.65,2.303c0,0.282-0.107,0.809-0.823,1.168c-0.48,0.242-1.193,0.375-2.025,0.404
			c1.568,0.484,2.85,1.221,2.85,2.146c0,1.533-3.051,1.652-3.985,1.652c-1.751,0-3.485-0.343-4.757-0.943
			c-0.511-0.239-0.951-0.52-1.317-0.834c-0.024,0.119-0.03,0.236-0.03,0.343c0,0.791,0.473,1.452,1.407,1.964
			c2.078,1.139,5.624,1.066,6.959,0.214c0.471-0.302,0.453-0.556,0.446-0.64l1.274-0.086c0.047,0.705-0.32,1.345-1.034,1.802
			C9.455,23.883,8.08,24.165,6.63,24.165"/>
	</g>
</g>
</svg>
